<svg height="512pt" viewBox="0 -101 512 512" width="512pt" xmlns="http://www.w3.org/2000/svg"><path d="m256 214.941406c-41.695312 0-83.390625-4.03125-123.925781-12.09375-7.019531-1.398437-12.074219-7.558594-12.074219-14.710937v-66.273438c0-7.15625 5.054688-13.3125 12.074219-14.710937 81.074219-16.125 166.777343-16.125 247.851562 0 7.019531 1.394531 12.074219 7.554687 12.074219 14.710937v66.273438c0 7.152343-5.054688 13.3125-12.074219 14.710937-40.535156 8.0625-82.230469 12.09375-123.925781 12.09375zm0 0" fill="#fc0023"/><path d="m120 155v33.136719c0 7.15625 5.054688 13.3125 12.074219 14.710937 40.535156 8.0625 82.230469 12.09375 123.925781 12.09375s83.390625-4.03125 123.925781-12.09375c7.019531-1.394531 12.074219-7.554687 12.074219-14.710937v-33.136719zm0 0" fill="#c9001c"/><path d="m75 280h-60c-8.285156 0-15-6.714844-15-15v-220c0-8.285156 6.714844-15 15-15h60c8.285156 0 15 6.714844 15 15v220c0 8.285156-6.714844 15-15 15zm0 0" fill="#3f4a4a"/><path d="m497 280h-60c-8.285156 0-15-6.714844-15-15v-220c0-8.285156 6.714844-15 15-15h60c8.285156 0 15 6.714844 15 15v220c0 8.285156-6.714844 15-15 15zm0 0" fill="#3f4a4a"/><path d="m0 155v110c0 8.285156 6.714844 15 15 15h60c8.285156 0 15-6.714844 15-15v-110zm0 0" fill="#323c3c"/><path d="m422 155v110c0 8.285156 6.714844 15 15 15h60c8.285156 0 15-6.714844 15-15v-110zm0 0" fill="#323c3c"/><path d="m135 310h-60c-8.285156 0-15-6.714844-15-15v-280c0-8.285156 6.714844-15 15-15h60c8.285156 0 15 6.714844 15 15v280c0 8.285156-6.714844 15-15 15zm0 0" fill="#485959"/><path d="m437 310h-60c-8.285156 0-15-6.714844-15-15v-280c0-8.285156 6.714844-15 15-15h60c8.285156 0 15 6.714844 15 15v280c0 8.285156-6.714844 15-15 15zm0 0" fill="#485959"/><g fill="#3f4a4a"><path d="m60 155v140c0 8.285156 6.714844 15 15 15h60c8.285156 0 15-6.714844 15-15v-140zm0 0"/><path d="m362 155v140c0 8.285156 6.714844 15 15 15h60c8.285156 0 15-6.714844 15-15v-140zm0 0"/></g></svg>